<svg width="32" height="33" viewBox="0 0 32 33" fill="none" xmlns="http://www.w3.org/2000/svg">
<path d="M15.9551 2.1875C7.84219 2.1875 1.24219 8.7875 1.24219 16.9005C1.24219 25.0134 7.84219 31.6134 15.9551 31.6134C24.0678 31.6134 30.6678 25.0134 30.6678 16.9005C30.6678 8.7875 24.0678 2.1875 15.9551 2.1875ZM15.9551 30.9731C8.19515 30.9731 1.88219 24.6601 1.88219 16.9001C1.88219 9.14014 8.19515 2.8275 15.9551 2.8275C23.7148 2.8275 30.0278 9.14046 30.0278 16.9005C30.0278 24.6605 23.7148 30.9731 15.9551 30.9731Z" fill="#FBFBFB"/>
<path d="M20.5901 8.02441H17.7683C15.4662 8.02441 13.5213 10.2123 13.5213 12.8023V13.8423H11.2809C11.1043 13.8423 10.9609 13.9857 10.9609 14.1623V17.6535C10.9609 17.8302 11.1043 17.9735 11.2809 17.9735H13.5213V25.5335C13.5213 25.7102 13.6646 25.8535 13.8413 25.8535H17.0995C17.2761 25.8535 17.4195 25.7102 17.4195 25.5335V17.9739H20.5904C20.767 17.9739 20.9104 17.8305 20.9104 17.6539V14.1627C20.9104 13.986 20.767 13.8427 20.5904 13.8427H17.4195V12.7723C17.4195 12.3652 17.664 12.1553 17.7683 12.1553H20.5901C20.7667 12.1553 20.9101 12.0119 20.9101 11.8353V8.34441C20.9101 8.16777 20.767 8.02441 20.5901 8.02441ZM20.2701 11.5153H17.7683C17.2909 11.5153 16.7795 12.0203 16.7795 12.7723V14.1627C16.7795 14.3393 16.9229 14.4827 17.0995 14.4827H20.2704V17.3339H17.0995C16.9229 17.3339 16.7795 17.4772 16.7795 17.6539V25.2139H14.1613V17.6539C14.1613 17.4772 14.0179 17.3339 13.8413 17.3339H11.6009V14.4827H13.8413C14.0179 14.4827 14.1613 14.3393 14.1613 14.1627V12.8027C14.1613 10.5598 15.8131 8.66473 17.7683 8.66473H20.2701V11.5153Z" fill="#FBFBFB"/>
</svg>
