<svg width="32" height="33" viewBox="0 0 32 33" fill="none" xmlns="http://www.w3.org/2000/svg">
<path d="M16.544 2.19727C8.41597 2.19727 1.82397 8.78927 1.82397 16.9173C1.82397 25.0453 8.41597 31.6373 16.544 31.6373C24.672 31.6373 31.264 25.0453 31.264 16.9173C31.264 8.78927 24.672 2.19727 16.544 2.19727ZM16.544 30.9973C8.76797 30.9973 2.46397 24.6933 2.46397 16.9173C2.46397 9.14127 8.76797 2.83727 16.544 2.83727C24.32 2.83727 30.624 9.14127 30.624 16.9173C30.624 24.6933 24.32 30.9973 16.544 30.9973Z" fill="#FBFBFB"/>
<path d="M26.3365 10.9328C26.3365 10.9008 26.3365 10.8688 26.3365 10.8688C26.3365 10.8368 26.3045 10.8368 26.3045 10.8048C26.3045 10.8048 26.3045 10.7728 26.2725 10.7728C26.2405 10.7408 26.2085 10.7408 26.1765 10.7088C26.1765 10.7088 26.1765 10.7088 26.1445 10.7088C26.1125 10.7088 26.0805 10.6768 26.0485 10.6768H7.00848C6.97648 10.6768 6.91248 10.6768 6.88048 10.7088C6.88048 10.7088 6.88048 10.7088 6.84848 10.7088C6.81648 10.7088 6.78448 10.7408 6.75248 10.7728C6.75248 10.7728 6.75248 10.8048 6.72048 10.8048C6.68848 10.8368 6.68848 10.8368 6.68848 10.8688C6.68848 10.9008 6.68848 10.9328 6.68848 10.9328V10.9648V22.9328C6.68848 23.1248 6.81648 23.2528 7.00848 23.2528H25.9845C26.1765 23.2528 26.3045 23.1248 26.3045 22.9328V10.9968C26.3365 10.9648 26.3365 10.9648 26.3365 10.9328ZM25.2165 11.3168L16.5125 19.7328L7.80848 11.3168H25.2165ZM7.32848 22.6448V11.7648L16.2885 20.4368C16.3525 20.5008 16.4165 20.5328 16.5125 20.5328C16.6085 20.5328 16.6725 20.5008 16.7365 20.4368L25.6965 11.7648V22.6448H7.32848Z" fill="#FBFBFB"/>
</svg>
