<svg width="32" height="33" viewBox="0 0 32 33" fill="none" xmlns="http://www.w3.org/2000/svg">
<path d="M15.7283 31.5945C23.8412 31.5945 30.4412 24.9945 30.4412 16.8816C30.4412 8.76862 23.8412 2.16895 15.7283 2.16895C7.6153 2.16895 1.01562 8.76926 1.01562 16.8819C1.01562 24.9945 7.61563 31.5945 15.7283 31.5945ZM15.7283 2.80895C23.4879 2.80895 29.8012 9.1219 29.8012 16.8819C29.8012 24.6419 23.4879 30.9545 15.7283 30.9545C7.96859 30.9545 1.65562 24.6416 1.65562 16.8819C1.65562 9.12222 7.96859 2.80895 15.7283 2.80895Z" fill="#FBFBFB"/>
<path d="M8.39598 21.6244C9.8011 22.5258 11.4261 23.0026 13.0955 23.0026C16.2085 23.0026 18.2123 21.5898 19.3451 20.4049C20.9537 18.7223 21.8696 16.3604 21.8142 14.0554C22.3649 13.6353 22.8398 13.1287 23.228 12.5473C23.307 12.4289 23.2984 12.2724 23.2065 12.1636C23.115 12.0548 22.9627 12.0196 22.8321 12.0772C22.6827 12.1434 22.5307 12.2033 22.3761 12.2561C22.5909 11.9684 22.7579 11.6455 22.8693 11.2986C22.9099 11.1719 22.868 11.0337 22.764 10.9508C22.6603 10.8679 22.5163 10.8577 22.4014 10.9255C21.8987 11.2234 21.3582 11.4391 20.7931 11.5684C20.187 10.9921 19.3736 10.665 18.5339 10.665C17.5301 10.665 16.596 11.1162 15.9717 11.9028C15.4353 12.578 15.1912 13.419 15.2753 14.2618C13.1499 14.0487 11.179 12.9921 9.8187 11.3236C9.75214 11.2423 9.65006 11.1994 9.54542 11.2068C9.44078 11.2151 9.3467 11.274 9.2939 11.3649C8.63438 12.4964 8.73198 13.8753 9.4459 14.8935C9.39726 14.8702 9.34926 14.8455 9.30222 14.8196C9.2043 14.7652 9.08494 14.7658 8.98798 14.8215C8.8907 14.8772 8.8299 14.9796 8.82702 15.0916C8.80174 16.154 9.32622 17.1463 10.1534 17.7636C10.0731 17.7706 9.99726 17.8081 9.94222 17.8702C9.86766 17.9546 9.8427 18.0724 9.87726 18.1799C10.2161 19.2362 11.0568 20.0289 12.0875 20.3258C11.0478 20.929 9.82766 21.1822 8.60654 21.0378C8.46222 21.0218 8.31822 21.1073 8.26766 21.2478C8.2171 21.3882 8.27086 21.5438 8.39598 21.6244ZM13.1381 20.3844C13.2449 20.3009 13.2875 20.1594 13.2443 20.0311C13.2011 19.9028 13.0821 19.8151 12.9467 19.8126C11.9931 19.7953 11.1387 19.2666 10.6894 18.4545C10.9985 18.4602 11.3035 18.4206 11.5998 18.3396C11.7429 18.3002 11.8405 18.1681 11.835 18.0196C11.8299 17.8714 11.7237 17.7463 11.5781 17.7169C10.5141 17.5034 9.6923 16.6385 9.50574 15.6078C9.81742 15.7159 10.1448 15.777 10.4741 15.7873C10.6309 15.7927 10.7454 15.7009 10.7886 15.5652C10.8325 15.4292 10.7806 15.2807 10.6619 15.2014C9.63726 14.5166 9.23982 13.2254 9.64942 12.1057C11.1944 13.793 13.3509 14.8154 15.6408 14.93C15.7393 14.9354 15.8379 14.8926 15.9022 14.8158C15.9665 14.739 15.9909 14.6359 15.9681 14.538C15.7851 13.7502 15.9688 12.9345 16.4725 12.2999C16.9745 11.667 17.7259 11.3044 18.5333 11.3044C19.2584 11.3044 19.9589 11.6074 20.4549 12.1361C20.5304 12.2164 20.6414 12.2516 20.7502 12.2311C21.1201 12.1582 21.4808 12.0526 21.8299 11.915C21.6309 12.1706 21.3845 12.3898 21.1009 12.5601C20.9717 12.6378 20.9141 12.7953 20.9627 12.938C21.0117 13.081 21.1557 13.17 21.3035 13.1521C21.5445 13.1233 21.7825 13.0807 22.0168 13.0247C21.7963 13.2487 21.5569 13.4535 21.3006 13.6385C21.2133 13.7015 21.1633 13.8046 21.1681 13.9124C21.2667 16.0999 20.412 18.3617 18.8817 19.962C17.835 21.0567 15.9816 22.362 13.0945 22.362C11.9765 22.362 10.8801 22.1313 9.8667 21.6881C11.0536 21.5748 12.1969 21.122 13.1381 20.3844Z" fill="#FBFBFB"/>
</svg>
