<svg width="32" height="33" viewBox="0 0 32 33" fill="none" xmlns="http://www.w3.org/2000/svg">
<path d="M15.7853 31.6513C23.906 31.6513 30.5127 25.0449 30.5127 16.9246C30.513 8.80399 23.906 2.19727 15.7853 2.19727C7.66499 2.19727 1.05859 8.80399 1.05859 16.9243C1.05859 25.0449 7.66499 31.6513 15.7853 31.6513ZM15.7853 2.83727C23.553 2.83727 29.8727 9.15695 29.8727 16.9243C29.8727 24.6917 23.553 31.011 15.7853 31.011C8.01795 31.011 1.69859 24.6917 1.69859 16.9243C1.69859 9.15695 8.01795 2.83727 15.7853 2.83727Z" fill="#FBFBFB"/>
<path d="M20.1584 21.4209C19.4739 21.3226 18.8435 21.8077 18.7475 22.4737C18.6998 22.802 18.7827 23.1297 18.9814 23.3965C19.1805 23.6631 19.471 23.8365 19.8003 23.8842C19.8605 23.8929 19.92 23.897 19.9792 23.897C20.593 23.897 21.1219 23.4394 21.2099 22.834C21.2586 22.5053 21.1763 22.1773 20.9773 21.9098C20.7786 21.6423 20.4874 21.4685 20.1584 21.4209ZM20.5766 22.7409C20.5299 23.0634 20.2218 23.298 19.8918 23.2506C19.7325 23.2276 19.5917 23.1434 19.4947 23.0135C19.3981 22.8839 19.3574 22.7249 19.3811 22.5652C19.4237 22.2701 19.6806 22.0477 19.9789 22.0477C20.008 22.0477 20.0374 22.05 20.0666 22.0541C20.2259 22.0772 20.3667 22.1617 20.4637 22.2919C20.5603 22.4215 20.6003 22.5805 20.5766 22.7409Z" fill="#FBFBFB"/>
<path d="M13.1029 18.0079L13.0254 23.5653C13.0254 23.6866 13.1019 23.8152 13.2104 23.8693C13.2549 23.8914 13.315 23.9067 13.3646 23.9067C13.4117 23.9067 13.4632 23.8952 13.5077 23.8751L13.508 23.8754C13.8785 23.7035 14.5016 23.7007 14.8821 23.8674C14.9265 23.8885 14.9771 23.9007 15.0248 23.9007C15.0433 23.9007 15.0616 23.8991 15.0798 23.8959C15.243 23.8706 15.3681 23.7298 15.3681 23.5605C15.3681 23.5503 15.3675 23.5397 15.3665 23.5291L15.2888 18.0325L19.564 10.5653C19.571 10.5522 19.5777 10.5387 19.5835 10.525C19.6376 10.3893 19.6008 10.2347 19.4917 10.1407L19.4913 10.141C19.3918 10.0559 19.235 10.0351 19.1201 10.0901C18.7371 10.2757 18.0587 10.2655 17.7147 10.1026C17.5675 10.0194 17.339 10.0818 17.2542 10.2287L14.2027 15.5051L11.1605 10.2453C11.0846 10.0939 10.8609 10.0175 10.7083 10.0917C10.5185 10.1835 10.2664 10.2341 9.9979 10.2341C9.7323 10.2341 9.4731 10.1819 9.30318 10.1C9.17518 10.0283 8.9899 10.0587 8.8971 10.1563C8.79502 10.2584 8.77038 10.4408 8.84206 10.5659L13.1029 18.0079ZM10.7253 10.7701L13.9262 16.3039C14.0405 16.5016 14.3656 16.5016 14.4798 16.3039L17.6805 10.7701C17.9755 10.8603 18.3243 10.8949 18.6568 10.8623L14.6901 17.7903C14.6616 17.8402 14.6469 17.8965 14.6478 17.9538L14.7214 23.1509C14.3848 23.0818 14.0049 23.0831 13.6709 23.1538L13.7441 17.9291C13.7448 17.8719 13.7304 17.8155 13.7019 17.7656L9.7499 10.8629C10.0814 10.8933 10.4341 10.8594 10.7253 10.7701Z" fill="#FBFBFB"/>
<path d="M19.5738 20.5181C19.5738 20.5193 19.5728 20.5289 19.5719 20.5382C19.5555 20.6518 19.5975 20.7657 19.6701 20.8249C19.6983 20.8531 19.7418 20.8813 19.7779 20.8973C19.8362 20.9229 19.9066 20.9299 19.9687 20.919C20.0656 20.9014 20.1635 20.9011 20.2727 20.9174C20.3587 20.9296 20.4384 20.9507 20.5098 20.9801L20.5101 20.9798C20.5514 20.9968 20.5975 21.0067 20.64 21.0067C20.6992 21.0067 20.7578 20.991 20.8227 20.9529C20.8855 20.9123 20.9421 20.8377 20.9642 20.7664C20.9677 20.7555 20.9725 20.7341 20.9747 20.7232L20.9914 20.6422C21.4295 17.7542 22.0291 14.8208 22.7779 11.9072C22.832 11.6387 22.864 11.4713 22.8701 11.4304C22.9683 10.7507 22.4957 10.1177 21.8167 10.0198C21.1287 9.91999 20.5027 10.408 20.409 11.0595C20.4042 11.0848 20.3898 11.2307 20.3677 11.472L20.3571 11.5952C20.2439 14.5814 19.9827 17.5587 19.5792 20.4614L19.5738 20.5181ZM20.9955 11.6361L21.0051 11.5299C21.0234 11.3305 21.0346 11.2038 21.0403 11.1635C21.0867 10.8406 21.3904 10.6045 21.7251 10.6531C22.0547 10.7008 22.2845 11.0083 22.2378 11.3347C22.232 11.3693 22.2016 11.5273 22.1543 11.7641C21.4244 14.6041 20.8323 17.4787 20.3991 20.2896C20.3879 20.2877 20.3767 20.2861 20.3651 20.2845C20.3271 20.2787 20.289 20.2742 20.2512 20.271C20.6349 17.4461 20.8861 14.5373 20.9955 11.6361Z" fill="#FBFBFB"/>
</svg>
